<svg id="Layer_1" data-name="Layer 1" xmlns="http://www.w3.org/2000/svg" viewBox="0 0 392.86 235.53"><defs><style>.cls-1{fill:#082b61;}.cls-2{fill:#fed036;}.cls-3{fill:#f2af34;}.cls-4,.cls-5{fill:#bfecff;}.cls-5{stroke:#bfecff;stroke-linecap:round;stroke-linejoin:round;stroke-width:20px;}.cls-6{fill:#a3bfb7;}.cls-7{opacity:0.2;}.cls-8{fill:#2a2f33;}</style></defs><title>Artboard 4</title><path class="cls-1" d="M313.46,155.92H329c12.12,0,21.94,11.12,21.94,24.85S341.1,205.62,329,205.62H313.46Z"/><path class="cls-1" d="M291.52,180.77c0,13.72,9.82,24.85,21.94,24.85s21.93-11.13,21.93-24.85-9.82-24.85-21.93-24.85S291.52,167,291.52,180.77Z"/><path class="cls-1" d="M347.76,193.63c-3.85,7.19-10.82,12-18.78,12H313.46v-12Z"/><path class="cls-2" d="M27.81,182V124.16c0-8.57,3.72-21.52,8.28-28.78L61.31,55.15C65.86,47.89,76.6,42,85.17,42h155.5a15.62,15.62,0,0,1,15.58,15.58V182"/><path class="cls-3" d="M344.36,108.94l7.13,5.86c6.62,5.44,12,16.9,12,25.47v38.17L361.21,182H265.29a15.63,15.63,0,0,1-15.59-15.58V140.27c0-8.57-5.41-20-12-25.47l-7.12-5.86Z"/><polygon class="cls-1" points="275.85 52.66 344.36 108.94 230.54 108.94 162.03 52.66 275.85 52.66"/><path class="cls-3" d="M161,51.84C154.4,46.4,156,42,164.56,42h82.66c8.57,0,21,4.45,27.63,9.89l1,.82H162Z"/><path class="cls-4" d="M284.5,141h42.74a3.88,3.88,0,0,1,3.87,3.87v24.26a3.88,3.88,0,0,1-3.87,3.86H284.5a3.88,3.88,0,0,1-3.87-3.86V144.82A3.88,3.88,0,0,1,284.5,141Z"/><path class="cls-4" d="M335.89,145.82c0,8.25,4.84,15,10.8,15s10.8-6.7,10.8-15-4.83-14.95-10.8-14.95S335.89,137.56,335.89,145.82Z"/><path class="cls-4" d="M254.25,145.82c0,8.25,4.84,15,10.8,15s10.8-6.7,10.8-15-4.84-14.95-10.8-14.95S254.25,137.56,254.25,145.82Z"/><polygon class="cls-3" points="184.47 182.02 190.22 179.55 190.22 106.47 184.47 106.47 184.47 182.02"/><rect class="cls-3" x="114.02" y="108.94" width="5.76" height="73.08"/><rect class="cls-3" x="43.18" y="106.47" width="5.76" height="75.55"/><path class="cls-1" d="M48.13,108.94c-4.48,0-6.25-3.13-3.94-7L69.67,59.63a16,16,0,0,1,12.33-7h45.47a23.37,23.37,0,0,1,14,5.63l46.88,45c3.22,3.1,2.2,5.63-2.27,5.63Z"/><line class="cls-5" x1="361.38" y1="175.74" x2="243.33" y2="175.74"/><polyline class="cls-6" points="179.5 165.37 165.24 182.17 181.5 182.17"/><path class="cls-4" d="M165.52,182.18a6.43,6.43,0,0,1-5-10.55l16.91-20.38a6.44,6.44,0,0,1,9.91,8.22l-16.91,20.38A6.42,6.42,0,0,1,165.52,182.18Z"/><path class="cls-1" d="M197.77,155.92H213.3c12.12,0,21.94,11.12,21.94,24.85s-9.82,24.85-21.94,24.85H197.77Z"/><path class="cls-1" d="M175.84,180.77c0,13.72,9.82,24.85,21.93,24.85s21.94-11.13,21.94-24.85-9.82-24.85-21.94-24.85S175.84,167,175.84,180.77Z"/><path class="cls-6" d="M188.35,180.77c0,5.89,4.22,10.67,9.42,10.67s9.42-4.78,9.42-10.67S203,170.1,197.77,170.1,188.35,174.87,188.35,180.77Z"/><g class="cls-7"><path class="cls-8" d="M232.07,193.63c-3.84,7.19-10.81,12-18.77,12H197.77v-12Z"/></g><polygon class="cls-2" points="195.05 139.66 247.22 139.66 247.22 172.94 227.8 172.94 195.05 139.66"/><path class="cls-4" d="M249.48,182.18H227.8a6.41,6.41,0,0,1-4.55-1.89l-18.5-18.49H182.43a6.44,6.44,0,0,1,0-12.88h25a6.45,6.45,0,0,1,4.56,1.89l18.49,18.5h19a6.44,6.44,0,1,1,0,12.87Z"/><polyline class="cls-6" points="49.18 165.21 35.61 182.02 51.19 182.02"/><path class="cls-4" d="M34.48,182.18H26.8a6.44,6.44,0,1,1,0-12.87h4.53l13.92-17.9a6.43,6.43,0,1,1,10.16,7.9L39.56,179.69A6.41,6.41,0,0,1,34.48,182.18Z"/><path class="cls-1" d="M66.35,155.92H81.88c12.11,0,21.93,11.12,21.93,24.85S94,205.62,81.88,205.62H66.35Z"/><path class="cls-1" d="M44.42,180.77c0,13.72,9.82,24.85,21.93,24.85s21.94-11.13,21.94-24.85-9.82-24.85-21.94-24.85S44.42,167,44.42,180.77Z"/><path class="cls-6" d="M56.93,180.77c0,5.89,4.22,10.67,9.42,10.67s9.42-4.78,9.42-10.67-4.22-10.67-9.42-10.67S56.93,174.87,56.93,180.77Z"/><g class="cls-7"><path class="cls-1" d="M100.65,193.63c-3.84,7.19-10.81,12-18.77,12H66.35v-12Z"/></g><polygon class="cls-2" points="62.2 139.66 114.37 139.66 114.37 172.94 94.95 172.94 62.2 139.66"/><path class="cls-4" d="M165.24,182.18H96.38a6.45,6.45,0,0,1-4.56-1.89L73.32,161.8H51a6.44,6.44,0,1,1,0-12.88H76a6.41,6.41,0,0,1,4.55,1.89L99,169.31h66.2a6.44,6.44,0,1,1,0,12.87Z"/><rect class="cls-3" x="113.29" y="52.66" width="7.11" height="56.31"/><path class="cls-2" d="M145.88,105.34a8.94,8.94,0,0,1,8.94-8.94h10.72a8.94,8.94,0,0,1,8.94,8.94h0a8.94,8.94,0,0,1-8.94,8.94H154.82a8.94,8.94,0,0,1-8.94-8.94Z"/><rect class="cls-2" x="164.81" y="106.06" width="9.64" height="8.22"/></svg>